<?xml version="1.0" encoding="UTF-8" standalone="no"?><!-- Generator: Gravit.io --><svg xmlns="http://www.w3.org/2000/svg" xmlns:xlink="http://www.w3.org/1999/xlink" style="isolation:isolate" viewBox="0 0 500 350" width="500pt" height="350pt"><defs><clipPath id="_clipPath_cMhZX3pNTDSHrMGBaQTTFyBDaKpCLPxa"><rect width="500" height="350"/></clipPath></defs><g clip-path="url(#_clipPath_cMhZX3pNTDSHrMGBaQTTFyBDaKpCLPxa)"><defs><filter id="HJB7yKsGJI66kVdLJaVUbdOXlKgReIzP" x="-200%" y="-200%" width="400%" height="400%" filterUnits="objectBoundingBox" color-interpolation-filters="sRGB"><feGaussianBlur xmlns="http://www.w3.org/2000/svg" in="SourceGraphic" stdDeviation="2.146804531419514"/><feOffset xmlns="http://www.w3.org/2000/svg" dx="2" dy="4" result="pf_100_offsetBlur"/><feFlood xmlns="http://www.w3.org/2000/svg" flood-color="#000000" flood-opacity="0.4"/><feComposite xmlns="http://www.w3.org/2000/svg" in2="pf_100_offsetBlur" operator="in" result="pf_100_dropShadow"/><feBlend xmlns="http://www.w3.org/2000/svg" in="SourceGraphic" in2="pf_100_dropShadow" mode="normal"/></filter></defs><g filter="url(#HJB7yKsGJI66kVdLJaVUbdOXlKgReIzP)"><path d=" M 404.104 193.167 L 404.104 152.931 L 372.237 152.931 C 370.782 143.56 368.389 134.521 365.044 125.916 L 392.595 109.999 L 372.472 75.146 L 344.965 91.039 C 339.072 83.769 332.471 77.129 325.164 71.254 L 341.072 43.729 L 306.22 23.609 L 290.306 51.176 C 281.701 47.835 272.663 45.418 263.272 43.983 L 263.272 12.096 L 223.035 12.096 L 223.035 43.986 C 213.682 45.418 204.644 47.856 196.036 51.176 L 180.125 23.609 L 145.268 43.729 L 161.142 71.257 C 153.874 77.13 147.234 83.772 141.379 91.039 L 113.833 75.146 L 93.713 109.981 L 121.298 125.916 C 117.96 134.521 115.54 143.56 114.108 152.931 L 82.2 152.931 L 82.2 193.167 L 114.109 193.167 C 115.541 202.54 117.961 211.577 121.299 220.185 L 93.714 236.1 L 113.834 270.952 L 141.38 255.059 C 147.236 262.329 153.875 268.967 161.144 274.844 L 145.269 302.369 L 180.126 322.486 L 196.04 294.922 C 204.645 298.263 213.683 300.66 223.035 302.113 L 223.035 334 L 263.272 334 L 263.272 302.113 C 272.663 300.66 281.705 298.263 290.307 294.922 L 306.221 322.486 L 341.079 302.369 L 325.165 274.844 C 332.472 268.967 339.073 262.329 344.971 255.037 L 372.475 270.933 L 392.595 236.1 L 365.044 220.185 C 368.389 211.577 370.782 202.54 372.24 193.167 L 404.104 193.167 L 404.104 193.167 Z  M 243.153 263.586 C 193.169 263.586 152.615 223.034 152.615 173.049 C 152.615 123.047 193.169 82.513 243.153 82.513 C 293.136 82.513 333.691 123.047 333.691 173.049 C 333.691 223.034 293.136 263.586 243.153 263.586 Z " fill="rgb(93,93,93)"/></g><defs><filter id="zjjOFBAmVPAJQY6aC5WEMLqp2gq6WOJx" x="-200%" y="-200%" width="400%" height="400%" filterUnits="objectBoundingBox" color-interpolation-filters="sRGB"><feGaussianBlur xmlns="http://www.w3.org/2000/svg" in="SourceGraphic" stdDeviation="2.146804531419514"/><feOffset xmlns="http://www.w3.org/2000/svg" dx="0" dy="0" result="pf_100_offsetBlur"/><feFlood xmlns="http://www.w3.org/2000/svg" flood-color="#000000" flood-opacity="0.65"/><feComposite xmlns="http://www.w3.org/2000/svg" in2="pf_100_offsetBlur" operator="in" result="pf_100_dropShadow"/><feBlend xmlns="http://www.w3.org/2000/svg" in="SourceGraphic" in2="pf_100_dropShadow" mode="normal"/></filter></defs><g filter="url(#zjjOFBAmVPAJQY6aC5WEMLqp2gq6WOJx)"><path d=" M 201.486 138.048 L 184.819 138.048 C 175.614 138.048 168.152 144.316 168.152 152.048 L 168.152 208.048 L 184.819 208.048 L 184.819 180.048 L 201.486 180.048 L 201.486 208.048 L 218.152 208.048 L 218.152 152.048 C 218.152 144.316 210.69 138.048 201.486 138.048 Z  M 201.486 166.048 L 184.819 166.048 L 184.819 152.048 L 201.486 152.048 M 259.819 138.048 L 226.486 138.048 L 226.486 208.048 L 243.152 208.048 L 243.152 180.048 L 259.819 180.048 C 269.024 180.048 276.486 173.78 276.486 166.048 L 276.486 152.048 C 276.486 144.316 269.024 138.048 259.819 138.048 Z  M 259.819 166.048 L 243.152 166.048 L 243.152 152.048 L 259.819 152.048 M 309.819 152.048 L 309.819 194.048 L 318.152 194.048 L 318.152 208.048 L 284.819 208.048 L 284.819 194.048 L 293.152 194.048 L 293.152 152.048 L 284.819 152.048 L 284.819 138.048 L 318.152 138.048 L 318.152 152.048 L 309.819 152.048 Z " fill="rgb(46,46,46)"/></g><g filter="url(#931SkWwzTgdSNBT5GeFkNPsxWGNckTqC)"><g/></g><defs><filter id="931SkWwzTgdSNBT5GeFkNPsxWGNckTqC" x="-200%" y="-200%" width="400%" height="400%" filterUnits="objectBoundingBox" color-interpolation-filters="sRGB"><feGaussianBlur xmlns="http://www.w3.org/2000/svg" in="SourceGraphic" stdDeviation="4.293609062839028"/><feOffset xmlns="http://www.w3.org/2000/svg" dx="7" dy="6" result="pf_100_offsetBlur"/><feFlood xmlns="http://www.w3.org/2000/svg" flood-color="#000000" flood-opacity="0.1"/><feComposite xmlns="http://www.w3.org/2000/svg" in2="pf_100_offsetBlur" operator="in" result="pf_100_dropShadow"/><feBlend xmlns="http://www.w3.org/2000/svg" in="SourceGraphic" in2="pf_100_dropShadow" mode="normal"/></filter></defs><g clip-path="url(#_clipPath_mQ5f5pUSjWWzwDmA0jwTFpKTCfkzw1Nz)"><text transform="matrix(1,0,0,1,82.2,400.7)" style="font-family:'Viga';font-weight:400;font-size:60px;font-style:normal;fill:#15625a;stroke:none;">João Acesso</text></g><defs><clipPath id="_clipPath_mQ5f5pUSjWWzwDmA0jwTFpKTCfkzw1Nz"><rect x="0" y="0" width="339" height="80.64" transform="matrix(1,0,0,1,82.2,339.8)"/></clipPath></defs><g clip-path="url(#_clipPath_OcuvMDt95E06wnAzN0Tke8R8FnzR0knL)"><text transform="matrix(1,0,0,1,118.205,437.25)" style="font-family:'Viga';font-weight:400;font-size:30px;font-style:normal;fill:#5d5d5d;stroke:none;">Todo acesso em um</text><text transform="matrix(1,0,0,1,201.17,469.506)" style="font-family:'Viga';font-weight:400;font-size:30px;font-style:normal;fill:#5d5d5d;stroke:none;">só local</text></g><defs><clipPath id="_clipPath_OcuvMDt95E06wnAzN0Tke8R8FnzR0knL"><rect x="0" y="0" width="270" height="72.576" transform="matrix(1,0,0,1,118.2,406.8)"/></clipPath></defs></g></svg>