<?xml version="1.0" encoding="UTF-8" standalone="no"?><svg xmlns="http://www.w3.org/2000/svg" xmlns:xlink="http://www.w3.org/1999/xlink" style="isolation:isolate" viewBox="0 -100 500 500" width="400px" height="400px"><defs><clipPath id="_clipPath_udloMZaiTdDbZkTSUwF2vWcmLdxGJRxY"><rect width="500" height="500"/></clipPath></defs><g clip-path="url(#_clipPath_udloMZaiTdDbZkTSUwF2vWcmLdxGJRxY)"><defs><filter id="iiiUjW4COz3I7E3mCZb1Q9CpYBNFxf2Q" x="-200%" y="-200%" width="400%" height="400%" filterUnits="objectBoundingBox" color-interpolation-filters="sRGB"><feGaussianBlur xmlns="http://www.w3.org/2000/svg" in="SourceGraphic" stdDeviation="5.152330875406834"/><feOffset xmlns="http://www.w3.org/2000/svg" dx="6" dy="6" result="pf_100_offsetBlur"/><feFlood xmlns="http://www.w3.org/2000/svg" flood-color="#0E8072" flood-opacity="0.34"/><feComposite xmlns="http://www.w3.org/2000/svg" in2="pf_100_offsetBlur" operator="in" result="pf_100_dropShadow"/><feBlend xmlns="http://www.w3.org/2000/svg" in="SourceGraphic" in2="pf_100_dropShadow" mode="normal"/></filter><linearGradient id="_lgradient_1" x1="0.48078817733990153" y1="0.09460154241645236" x2="0.9030260380014076" y2="1.048566676027737"><stop offset="0%" style="stop-color:#60EBC7"/><stop offset="59.64821531446008%" style="stop-color:#4DD2AF"/><stop offset="99.16666666666667%" style="stop-color:#3EBF9D"/></linearGradient></defs><g filter="url(#iiiUjW4COz3I7E3mCZb1Q9CpYBNFxf2Q)"><path d="M 100.18 13 L 375.82 13 C 406.275 13 431 37.725 431 68.18 L 431 313.82 C 431 344.275 406.275 369 375.82 369 L 100.18 369 C 69.725 369 45 344.275 45 313.82 L 45 68.18 C 45 37.725 69.725 13 100.18 13 Z" style="stroke:none;fill:url(#_lgradient_1);stroke-miterlimit:10;"/></g><g><path d=" M 285 91 L 413 91 L 413 219 L 285 219 L 285 91 Z " fill="none"/><path d=" M 298.493 195.8 L 305.64 198.787 L 305.64 150.627 L 292.68 181.88 C 290.493 187.32 293.107 193.56 298.493 195.8 Z  M 402.493 176.067 L 376.04 112.227 C 374.387 108.227 370.493 105.773 366.387 105.667 C 365 105.667 363.56 105.88 362.173 106.467 L 322.867 122.733 C 318.867 124.387 316.413 128.227 316.307 132.333 C 316.253 133.773 316.52 135.213 317.107 136.6 L 343.56 200.44 C 345.213 204.493 349.16 206.947 353.32 207 C 354.707 207 356.093 206.733 357.427 206.2 L 396.68 189.933 C 402.12 187.693 404.733 181.453 402.493 176.067 Z  M 327.027 137.667 C 324.093 137.667 321.693 135.267 321.693 132.333 C 321.693 129.4 324.093 127 327.027 127 C 329.96 127 332.36 129.4 332.36 132.333 C 332.36 135.267 329.96 137.667 327.027 137.667 Z  M 316.36 196.333 C 316.36 202.2 321.16 207 327.027 207 L 334.76 207 L 316.36 162.52 L 316.36 196.333 Z " fill="rgb(255,255,255)"/></g><g><g><rect x="37" y="51.25" width="277" height="279.5" transform="matrix(1,0,0,1,0,0)" fill="none"/></g><g><g><g><ellipse vector-effect="non-scaling-stroke" cx="154.72500000000016" cy="156.06249999999997" rx="34.62499999999998" ry="34.93749999999997" fill="rgb(255,255,255)"/></g><g><path d=" M 189.211 190.301 C 191.566 190.72 193.92 191 196.275 191 C 215.388 191 230.9 175.348 230.9 156.062 C 230.9 136.777 215.388 121.125 196.275 121.125 C 193.92 121.125 191.566 121.404 189.211 121.824 C 197.798 130.628 203.2 142.786 203.2 156.062 C 203.2 169.339 197.798 181.497 189.211 190.301 Z " fill-rule="evenodd" fill="rgb(255,255,255)"/></g><g><path d=" M 154.725 204.975 C 129.241 204.975 78.55 214.198 78.55 236.139 L 78.55 260.875 L 230.9 260.875 L 230.9 236.139 C 230.9 214.198 180.209 204.975 154.725 204.975 Z " fill-rule="evenodd" fill="rgb(255,255,255)"/></g><g><path d=" M 227.16 208.189 C 237.548 214.897 244.75 223.841 244.75 236.139 L 244.75 260.875 L 272.45 260.875 L 272.45 236.139 C 272.45 221.465 249.736 212.521 227.16 208.189 Z " fill-rule="evenodd" fill="rgb(255,255,255)"/></g></g></g></g></g></svg>